# File units = meters
mtllib stone.mtl
g Stone
v 0.0075122 0.0206375 0.000817001 
v 0.00716094 0.0206375 0.0024128 
v 0.00647484 0.0206375 0.00389578 
v 0.00548598 0.0206375 0.0051966 
v 0.00424061 0.0206375 0.00625443 
v 0.00279695 0.0206375 0.00701981 
v 0.00122251 0.0206375 0.00745695 
v -0.000409101 0.0206375 0.00754542 
v -0.00202158 0.0206375 0.00728107 
v -0.00353953 0.0206375 0.00667626 
v -0.00489197 0.0206375 0.00575928 
v -0.00601568 0.0206375 0.004573 
v -0.00685809 0.0206375 0.00317289 
v -0.00737983 0.0206375 0.00162442 
v -0.0075565 0.0206375 -4.62702e-19 
v -0.00737983 0.0206375 -0.00162442 
v -0.00685809 0.0206375 -0.00317289 
v -0.00601568 0.0206375 -0.004573 
v -0.00489197 0.0206375 -0.00575928 
v -0.00353953 0.0206375 -0.00667626 
v -0.00202158 0.0206375 -0.00728107 
v -0.000409101 0.0206375 -0.00754542 
v 0.00122251 0.0206375 -0.00745695 
v 0.00279695 0.0206375 -0.00701981 
v 0.00424061 0.0206375 -0.00625443 
v 0.00548598 0.0206375 -0.0051966 
v 0.00647484 0.0206375 -0.00389578 
v 0.00716094 0.0206375 -0.0024128 
v 0.0075122 0.0206375 -0.000817001 
v 0.0075565 0.0206375 -1.38811e-18 
v 0 0.0206375 -4.62702e-19 
v -0.0075565 0.022225 -4.62702e-19 
v -0.00737983 0.022225 -0.00162442 
v -0.00685809 0.022225 -0.00317289 
v -0.00601568 0.022225 -0.004573 
v -0.00489197 0.022225 -0.00575928 
v -0.00353953 0.022225 -0.00667626 
v -0.00202158 0.022225 -0.00728107 
v -0.000409101 0.022225 -0.00754542 
v 0.00122251 0.022225 -0.00745695 
v 0.00279695 0.022225 -0.00701981 
v 0.00424061 0.022225 -0.00625443 
v 0.00548598 0.022225 -0.0051966 
v 0.00647484 0.022225 -0.00389578 
v 0.00716094 0.022225 -0.0024128 
v 0.0075122 0.022225 -0.000817001 
v 0.0075122 0.022225 0.000817001 
v 0.0075565 0.022225 -3.23892e-18 
v 0.00716094 0.022225 0.0024128 
v 0.00647484 0.022225 0.00389578 
v 0.00548598 0.022225 0.0051966 
v 0.00424061 0.022225 0.00625443 
v 0.00279695 0.022225 0.00701981 
v 0.00122251 0.022225 0.00745695 
v -0.000409101 0.022225 0.00754542 
v -0.00202158 0.022225 0.00728107 
v -0.00353953 0.022225 0.00667626 
v -0.00489197 0.022225 0.00575928 
v -0.00601568 0.022225 0.004573 
v -0.00685809 0.022225 0.00317289 
v -0.00737983 0.022225 0.00162442 
v 0.00688321 0.022225 0.000178212 
v 0.00346608 0.022225 -0.00588079 
v 0.00374481 0.022225 0.00593196 
v 0.00346608 0.022225 -0.00245179 
v -0.00350816 0.022225 -0.00588079 
v -0.00350816 0.022225 -0.00245179 
v -0.0061235 0.022225 0.00213958 
v -0.0061235 0.022225 -0.00128942 
v -0.00064867 0.022225 0.00610757 
v -0.0037564 0.022225 0.00465841 
v 0.000908859 0.022225 -0.00128942 
v 0.000908859 0.022225 0.00213958 
v 0.00387291 0.022225 -0.00146377 
v -0.000361368 0.022225 0.00549145 
v -0.0034691 0.022225 0.00404229 
v 0.000734503 0.022225 0.00428997 
v 0.000908859 0.025654 0.00213958 
v 0.000180973 0.025654 0.00213958 
v -0.0061235 0.025654 0.00213958 
v -0.00258185 0.0244285 0.00213958 
v -0.00258185 0.025654 0.00213958 
v -0.0061235 0.025654 -0.00128942 
v -0.00208839 0.025654 0.00108136 
v 0.000908859 0.025654 -0.000350607 
v 4.18484e-05 0.025654 -0.00128942 
v -0.00118643 0.0278941 -0.000852917 
v 0.00167891 0.0278941 0.000483209 
v 0.001875 0.0277791 0.000695541 
v -0.00465499 0.0242508 0.00658545 
v -0.00223562 0.0302594 0.00139708 
v 0.000872113 0.0302594 0.00284624 
v -0.00154726 0.0242508 0.00803461 
v 0.001875 0.0279984 0.000695541 
v 0.000908859 0.025654 -0.00128942 
v 0.00346608 0.025654 -0.00245179 
v 0.00387291 0.025654 -0.00146377 
v -0.00103163 0.025654 -0.00245179 
v 0.00239058 0.025654 0.00125382 
v 0.00346608 0.025654 -0.00263574 
v 0.0052341 0.025654 -0.000721305 
v -0.00350816 0.025654 -0.00245179 
v 0.00346608 0.025654 -0.00588079 
v -0.00350816 0.025654 -0.00588079 
v -0.00140672 0.025654 -0.00285795 
v 0.00111236 0.025654 -0.00518437 
v 0.000734503 0.025654 0.00428997 
v 0.00688321 0.025654 0.000178212 
v 0.00374481 0.025654 0.00593196 
v 0.00338116 0.025654 0.00232643 
v 0.00590024 0.025654 2.60209e-18 
v -0.00140672 0.029083 -0.00285795 
v 0.00338116 0.029083 0.00232643 
v 0.00590024 0.029083 2.60209e-18 
v 0.00111236 0.029083 -0.00518437 
vn 0 -1 0 
vn -1 0 0 
vn -0.976621 0 -0.21497 
vn -0.907575 0 -0.419889 
vn -0.796093 0 -0.605174 
vn -0.647386 0 -0.762162 
vn -0.468408 0 -0.883512 
vn -0.267528 0 -0.96355 
vn -0.0541389 0 -0.998533 
vn 0.161782 0 -0.986827 
vn 0.370138 0 -0.928977 
vn 0.561187 0 -0.827689 
vn 0.725995 0 -0.687699 
vn 0.856857 0 -0.515554 
vn 0.947653 0 -0.319302 
vn 0.994138 0 -0.108119 
vn 0.994138 0 0.108119 
vn 1 0 -1.22465e-16 
vn 0.994138 0 -0.108119 
vn 0.947653 0 0.319302 
vn 0.856857 0 0.515554 
vn 0.725995 0 0.687699 
vn 0.561187 0 0.827689 
vn 0.370138 0 0.928977 
vn 0.161782 0 0.986827 
vn -0.0541389 0 0.998533 
vn -0.267528 0 0.96355 
vn -0.468408 0 0.883512 
vn -0.647386 0 0.762162 
vn -0.796093 0 0.605174 
vn -0.907575 0 0.419889 
vn -0.976621 0 0.21497 
vn 0 1 0 
vn 0 0 1 
vn -1 0 0 
vn 0 1 0 
vn 0.305976 -0.6898 -0.656167 
vn -0.906308 0 -0.422618 
vn 0.906308 0 0.422618 
vn 0.291522 0.724 -0.625171 
vn -0.291522 -0.724 0.625171 
vn -0.305976 0.6898 0.656167 
vn 0 0 -1 
vn 1 0 0 
vn 0 -1 0 
vn 0 0 1 
vn 1 0 0 
vn 0 0 -1 
vn -1 0 0 
vn 0 1 0 
vn -0.877896 0 -0.478852 
vn 0.478852 0 -0.877896 
vn -0.478852 0 0.877896 
vn 0.877896 0 0.478852 
vn 0 1 0 
vn -0.734641 0 0.678456 
vn 0.734641 0 -0.678456 
vn -0.678456 0 -0.734641 
vn 0.678456 0 0.734641 
vn 0 1 0 
usemtl 0.917647_0.917647_0.917647_0.000000_0.000000
o mesh0
f 31//1 1//1 2//1 
f 2//1 3//1 31//1 
f 3//1 4//1 31//1 
f 4//1 5//1 31//1 
f 5//1 6//1 31//1 
f 6//1 7//1 31//1 
f 7//1 8//1 31//1 
f 8//1 9//1 31//1 
f 9//1 10//1 31//1 
f 10//1 11//1 31//1 
f 11//1 12//1 31//1 
f 12//1 13//1 31//1 
f 13//1 14//1 31//1 
f 14//1 15//1 31//1 
f 15//1 16//1 31//1 
f 16//1 17//1 31//1 
f 17//1 18//1 31//1 
f 18//1 19//1 31//1 
f 19//1 20//1 31//1 
f 20//1 21//1 31//1 
f 21//1 22//1 31//1 
f 22//1 23//1 31//1 
f 23//1 24//1 31//1 
f 24//1 25//1 31//1 
f 25//1 26//1 31//1 
f 26//1 27//1 31//1 
f 27//1 28//1 31//1 
f 28//1 29//1 31//1 
f 29//1 30//1 31//1 
f 30//1 1//1 31//1 
o mesh1
f 15//2 32//2 33//3 
f 16//3 33//3 34//4 
f 17//4 34//4 35//5 
f 18//5 35//5 36//6 
f 19//6 36//6 37//7 
f 20//7 37//7 38//8 
f 21//8 38//8 39//9 
f 22//9 39//9 40//10 
f 23//10 40//10 41//11 
f 24//11 41//11 42//12 
f 25//12 42//12 43//13 
f 26//13 43//13 44//14 
f 27//14 44//14 45//15 
f 28//15 45//15 46//16 
f 47//17 1//17 30//18 
f 29//19 46//16 48//18 
f 48//18 30//18 29//19 
f 1//17 47//17 49//20 
f 2//20 49//20 50//21 
f 3//21 50//21 51//22 
f 4//22 51//22 52//23 
f 5//23 52//23 53//24 
f 6//24 53//24 54//25 
f 7//25 54//25 55//26 
f 8//26 55//26 56//27 
f 9//27 56//27 57//28 
f 10//28 57//28 58//29 
f 11//29 58//29 59//30 
f 12//30 59//30 60//31 
f 13//31 60//31 61//32 
f 14//32 61//32 32//2 
f 32//2 15//2 14//32 
f 61//32 14//32 13//31 
f 60//31 13//31 12//30 
f 59//30 12//30 11//29 
f 58//29 11//29 10//28 
f 57//28 10//28 9//27 
f 56//27 9//27 8//26 
f 55//26 8//26 7//25 
f 54//25 7//25 6//24 
f 53//24 6//24 5//23 
f 52//23 5//23 4//22 
f 51//22 4//22 3//21 
f 50//21 3//21 2//20 
f 49//20 2//20 1//17 
f 30//18 48//18 47//17 
f 46//16 29//19 28//15 
f 45//15 28//15 27//14 
f 44//14 27//14 26//13 
f 43//13 26//13 25//12 
f 42//12 25//12 24//11 
f 41//11 24//11 23//10 
f 40//10 23//10 22//9 
f 39//9 22//9 21//8 
f 38//8 21//8 20//7 
f 37//7 20//7 19//6 
f 36//6 19//6 18//5 
f 35//5 18//5 17//4 
f 34//4 17//4 16//3 
f 33//3 16//3 15//2 
o mesh2
f 62//33 50//33 49//33 
f 43//33 42//33 63//33 
f 62//33 51//33 50//33 
f 64//33 52//33 51//33 
f 65//33 44//33 43//33 
f 65//33 46//33 45//33 
f 51//33 62//33 64//33 
f 45//33 44//33 65//33 
f 46//33 65//33 62//33 
f 66//33 63//33 38//33 
f 63//33 41//33 40//33 
f 67//33 35//33 34//33 
f 67//33 66//33 36//33 
f 68//33 69//33 32//33 
f 49//33 47//33 62//33 
f 62//33 48//33 46//33 
f 63//33 39//33 38//33 
f 63//33 42//33 41//33 
f 36//33 35//33 67//33 
f 69//33 33//33 32//33 
f 70//33 71//33 57//33 
f 53//33 52//33 64//33 
f 72//33 73//33 74//33 
f 63//33 65//33 43//33 
f 40//33 39//33 63//33 
f 34//33 69//33 67//33 
f 32//33 61//33 68//33 
f 68//33 59//33 71//33 
f 57//33 56//33 70//33 
f 75//33 54//33 53//33 
f 54//33 75//33 70//33 
f 65//33 67//33 72//33 
f 38//33 37//33 66//33 
f 69//33 72//33 67//33 
f 69//33 34//33 33//33 
f 68//33 60//33 59//33 
f 71//33 58//33 57//33 
f 73//33 68//33 76//33 
f 70//33 55//33 54//33 
f 77//33 76//33 75//33 
f 74//33 65//33 72//33 
f 66//33 37//33 36//33 
f 71//33 76//33 68//33 
f 71//33 59//33 58//33 
f 77//33 74//33 73//33 
f 75//33 64//33 77//33 
f 47//33 48//33 62//33 
f 56//33 55//33 70//33 
f 64//33 75//33 53//33 
f 61//33 60//33 68//33 
f 74//33 62//33 65//33 
f 76//33 77//33 73//33 
o mesh3
f 73//34 78//34 79//34 
f 80//34 68//34 81//34 
f 79//34 81//34 73//34 
f 81//34 68//34 73//34 
f 81//34 82//34 80//34 
o mesh4
f 83//35 69//35 68//35 
f 68//35 80//35 83//35 
o mesh5
f 84//36 79//36 85//36 
f 85//36 86//36 84//36 
f 86//36 83//36 84//36 
f 83//36 80//36 82//36 
f 82//36 84//36 83//36 
f 79//36 78//36 85//36 
o mesh6
f 87//37 88//37 79//37 
f 75//37 76//37 81//37 
f 79//37 84//37 87//37 
f 81//37 79//37 75//37 
f 79//37 89//37 75//37 
f 88//37 89//37 79//37 
o mesh7
f 71//38 82//38 81//38 
f 81//38 76//38 71//38 
f 90//38 91//38 82//38 
f 91//38 87//38 84//38 
f 84//38 82//38 91//38 
f 71//38 90//38 82//38 
o mesh8
f 92//39 70//39 75//39 
f 75//39 89//39 92//39 
f 92//39 93//39 70//39 
f 89//39 94//39 92//39 
o mesh9
f 91//40 92//40 88//40 
f 92//40 94//40 88//40 
f 88//40 87//40 91//40 
o mesh10
f 93//41 90//41 71//41 
f 71//41 70//41 93//41 
o mesh11
f 93//42 92//42 91//42 
f 91//42 90//42 93//42 
o mesh12
f 69//43 83//43 86//43 
f 86//43 72//43 69//43 
f 86//43 95//43 72//43 
o mesh13
f 73//44 72//44 85//44 
f 72//44 95//44 85//44 
f 85//44 78//44 73//44 
o mesh14
f 96//45 97//45 95//45 
f 95//45 98//45 96//45 
f 95//45 86//45 98//45 
f 97//45 99//45 85//45 
f 85//45 95//45 97//45 
f 100//45 101//45 97//45 
f 96//45 100//45 97//45 
o mesh15
f 65//46 96//46 98//46 
f 98//46 67//46 65//46 
f 98//46 102//46 67//46 
o mesh16
f 63//47 103//47 100//47 
f 100//47 65//47 63//47 
f 100//47 96//47 65//47 
o mesh17
f 103//48 63//48 66//48 
f 66//48 104//48 103//48 
o mesh18
f 104//49 66//49 67//49 
f 67//49 102//49 104//49 
o mesh19
f 104//50 102//50 105//50 
f 105//50 106//50 104//50 
f 102//50 98//50 105//50 
f 106//50 103//50 104//50 
f 106//50 100//50 103//50 
o mesh20
f 77//51 107//51 99//51 
f 99//51 74//51 77//51 
f 99//51 97//51 74//51 
o mesh21
f 62//52 74//52 101//52 
f 74//52 97//52 101//52 
f 101//52 108//52 62//52 
o mesh22
f 107//53 77//53 64//53 
f 64//53 109//53 107//53 
o mesh23
f 109//54 64//54 62//54 
f 62//54 108//54 109//54 
o mesh24
f 107//55 109//55 110//55 
f 109//55 108//55 111//55 
f 111//55 110//55 109//55 
f 108//55 101//55 111//55 
f 110//55 99//55 107//55 
o mesh25
f 85//56 99//56 89//56 
f 89//56 88//56 85//56 
f 88//56 112//56 86//56 
f 86//56 85//56 88//56 
f 113//56 94//56 89//56 
f 112//56 88//56 94//56 
f 112//56 98//56 86//56 
f 94//56 113//56 112//56 
f 112//56 105//56 98//56 
f 99//56 110//56 89//56 
f 89//56 110//56 113//56 
o mesh26
f 114//57 101//57 100//57 
f 100//57 115//57 114//57 
f 114//57 111//57 101//57 
f 100//57 106//57 115//57 
o mesh27
f 115//58 106//58 105//58 
f 105//58 112//58 115//58 
o mesh28
f 113//59 110//59 111//59 
f 111//59 114//59 113//59 
o mesh29
f 115//60 112//60 113//60 
f 113//60 114//60 115//60 
